<?xml version="1.0" standalone="no"?>
<!DOCTYPE svg PUBLIC "-//W3C//DTD SVG 20010904//EN"
 "http://www.w3.org/TR/2001/REC-SVG-20010904/DTD/svg10.dtd">
<svg version="1.0" xmlns="http://www.w3.org/2000/svg"
 width="70.000000pt" height="70.000000pt" viewBox="0 0 70.000000 70.000000"
 preserveAspectRatio="xMidYMid meet">

<g transform="translate(0.000000,70.000000) scale(0.100000,-0.100000)"
fill="#000000" stroke="none">
<path d="M223 690 c-108 -3 -196 -9 -202 -15 -5 -6 -11 -139 -12 -317 -3 -289
-3 -308 15 -327 19 -21 25 -21 323 -17 269 3 306 5 321 20 15 15 17 51 20 309
2 161 0 302 -3 314 -3 12 -15 25 -28 29 -26 10 -170 11 -434 4z m415 -36 c22
-15 22 -17 22 -299 0 -244 -2 -286 -16 -299 -13 -14 -55 -16 -304 -16 -276 0
-290 1 -300 19 -6 12 -10 125 -10 297 0 244 2 280 17 296 15 17 37 18 292 18
234 0 280 -2 299 -16z"/>
<path d="M195 613 c-52 -27 -85 -64 -85 -95 0 -17 -10 -39 -25 -54 -24 -24
-25 -29 -24 -152 1 -70 5 -138 9 -152 7 -23 8 -23 9 -3 1 12 5 24 10 27 5 4 7
-4 3 -16 -4 -17 -2 -20 11 -15 9 3 18 0 21 -9 3 -8 1 -14 -4 -14 -6 0 -10 -7
-10 -15 0 -13 3 -13 20 -3 11 7 18 19 15 25 -14 36 -15 45 -1 23 8 -14 15 -20
16 -13 0 7 6 10 13 7 8 -3 14 2 14 10 0 8 -6 12 -13 9 -7 -2 -15 5 -19 16 -4
12 -12 18 -21 14 -11 -4 -14 5 -14 38 0 24 -3 55 -5 69 -3 14 -3 19 1 13 8
-19 24 -16 17 3 -4 10 1 17 16 21 11 3 21 11 21 17 0 6 11 13 25 14 17 1 25
-3 25 -15 0 -9 8 -34 17 -55 13 -29 25 -41 45 -45 16 -3 28 -9 28 -13 0 -5 3
-16 7 -26 4 -12 3 -15 -5 -10 -8 5 -10 2 -6 -8 3 -8 -6 -41 -20 -72 -14 -31
-26 -60 -26 -65 0 -5 20 -9 45 -9 52 0 60 12 71 104 6 53 6 53 41 51 26 0 39
-7 50 -25 9 -16 12 -18 7 -5 -6 18 -9 37 -17 127 -1 15 -8 33 -15 40 -11 11
-13 7 -7 -22 12 -63 11 -83 -6 -85 -12 -2 -15 4 -13 22 2 19 0 22 -11 13 -8
-6 -11 -18 -8 -26 10 -26 -15 -15 -52 23 -19 20 -38 33 -41 30 -4 -4 -14 8
-24 25 -9 18 -22 34 -28 36 -12 4 -11 -15 2 -38 7 -12 6 -13 -4 -3 -8 7 -15
21 -16 30 -2 10 -6 33 -9 52 -5 27 -4 33 8 28 9 -3 17 2 20 14 3 10 1 19 -4
19 -5 0 -9 10 -9 23 0 18 2 19 10 7 8 -12 10 -12 11 5 0 11 3 14 6 8 2 -7 9
-13 15 -13 5 0 -2 14 -16 31 -32 38 -33 53 -3 75 19 14 19 16 2 9 -33 -11 -40
-11 -37 3 3 15 4 15 -33 -5z m35 -24 c0 -5 -4 -9 -8 -9 -5 0 -9 7 -9 15 0 8 4
12 9 9 4 -3 8 -9 8 -15z m-43 -47 c2 -56 2 -56 -12 -26 -15 36 -15 65 0 76 6
4 10 8 10 8 0 0 1 -26 2 -58z m40 -14 c1 -26 -1 -29 -7 -13 -6 17 -3 45 5 45
1 0 2 -15 2 -32z m-96 -25 c-8 -15 -10 -15 -11 -2 0 17 10 32 18 25 2 -3 -1
-13 -7 -23z m-1 -83 c0 -19 -18 -19 -23 -1 -3 14 -1 18 9 14 8 -3 14 -9 14
-13z"/>
<path d="M310 620 c0 -5 5 -10 11 -10 5 0 7 5 4 10 -3 6 -8 10 -11 10 -2 0 -4
-4 -4 -10z"/>
<path d="M350 623 c8 -4 21 -13 29 -21 12 -11 16 -12 19 -2 5 15 -16 30 -43
29 -14 0 -16 -2 -5 -6z"/>
<path d="M410 594 c0 -8 5 -12 10 -9 6 4 8 11 5 16 -9 14 -15 11 -15 -7z"/>
<path d="M410 566 c0 -2 8 -10 18 -17 15 -13 16 -12 3 4 -13 16 -21 21 -21 13z"/>
<path d="M450 480 c0 -5 4 -10 9 -10 6 0 13 5 16 10 3 6 -1 10 -9 10 -9 0 -16
-4 -16 -10z"/>
<path d="M321 466 c-19 -7 -30 -15 -24 -19 5 -3 27 3 49 13 42 22 28 25 -25 6z"/>
<path d="M420 450 c0 -5 9 -10 20 -10 11 0 20 -5 20 -12 0 -6 2 -9 5 -6 3 3 3
13 -1 22 -7 17 -44 23 -44 6z"/>
<path d="M332 429 c-13 -5 -27 -7 -31 -5 -4 3 -13 -4 -19 -15 -12 -19 -11 -19
9 -9 17 10 24 9 31 -1 8 -11 9 -10 4 4 -4 13 0 17 19 17 13 0 27 5 30 10 8 12
-12 12 -43 -1z"/>
<path d="M386 413 c-6 -14 -5 -15 5 -6 7 7 10 15 7 18 -3 3 -9 -2 -12 -12z"/>
<path d="M287 354 c-8 -8 1 -24 14 -24 5 0 9 7 9 15 0 15 -12 20 -23 9z"/>
<path d="M388 348 c-21 -7 -28 -16 -28 -36 1 -24 2 -25 11 -9 7 12 14 15 22 9
16 -13 36 8 28 29 -5 13 -12 14 -33 7z"/>
<path d="M130 253 c0 -18 2 -33 4 -33 9 0 13 39 5 51 -6 10 -9 4 -9 -18z"/>
<path d="M257 225 c-15 -14 -27 -29 -27 -32 0 -4 10 3 23 15 13 12 27 19 32
15 4 -5 5 -3 2 4 -4 6 -1 14 5 16 7 3 8 6 3 6 -6 1 -23 -10 -38 -24z"/>
<path d="M207 161 c3 -6 -25 -31 -35 -31 -6 0 -13 -7 -16 -16 -4 -9 -9 -14
-13 -11 -3 4 -12 2 -18 -3 -9 -7 -16 -6 -25 5 -19 23 -33 18 -28 -10 3 -14 1
-25 -5 -25 -6 0 -8 -3 -4 -6 3 -3 43 -7 90 -9 l84 -4 27 56 c15 30 24 58 21
61 -3 3 -5 0 -5 -6 0 -6 -8 -9 -17 -6 -14 4 -15 4 -5 -4 11 -8 10 -16 -6 -48
l-20 -39 -7 28 c-5 17 -2 34 6 45 7 9 9 14 5 10 -5 -4 -14 -2 -20 5 -6 7 -10
11 -9 8z"/>
<path d="M488 113 c-3 -13 -2 -23 3 -23 5 0 9 -7 9 -17 0 -9 3 -14 6 -11 3 3
1 21 -4 39 -7 31 -9 32 -14 12z"/>
<path d="M446 75 c-11 -8 -15 -15 -9 -15 6 0 16 7 23 15 16 19 11 19 -14 0z"/>
</g>
</svg>
